<?xml version="1.0" encoding="UTF-8" standalone="no"?>
<!DOCTYPE svg PUBLIC "-//W3C//DTD SVG 1.1//EN" "http://www.w3.org/Graphics/SVG/1.1/DTD/svg11.dtd">
<svg width="100%" height="100%" viewBox="0 0 518213 68928" version="1.1" xmlns="http://www.w3.org/2000/svg" xmlns:xlink="http://www.w3.org/1999/xlink" xml:space="preserve" xmlns:serif="http://www.serif.com/" style="fill-rule:evenodd;clip-rule:evenodd;stroke-linejoin:round;">
    <g transform="matrix(5.55556,0,0,5.55556,0,0)">
        <g transform="matrix(4.16667,0,0,4.16667,-12967.8,-19909.7)">
            <path d="M3112.26,6233.56C3170.31,6536 3190.72,6803.46 3241,6575C3265,6463 3328,5916 3380,5884C3421,5860 3484,6141 3502,6195C3521,6256 3548,6353 3630,6332C3829,6283 3801,6120 3893,5983C3964,5878 4014,6168 4023,6207C4030,6239 4093,6599 4142,6556C4236,6475 4287,5345 4387,5896C4409,6015 4478,6640 4522,6681C4572,6728 4627,6209 4632,6175C4634,6159 4684,5703 4738,5792C4808,5911 4852,6645 4956,6428C5036,6259 5073,5929 5248,6139C5308,6211 5342,6312 5434,6240C5548,6150 5546,6282 5614,6299C5731,6330 5764,5393 5870,6191C5876,6236 5933,6786 5974,6762C6020,6736 6084,5870 6095,5768C6152,5223 6186,5592 6210,5863C6216,5939 6281,6914 6324,6903C6366,6892 6427,6041 6434,5962C6436,5948 6470,5510 6513,5708C6543,5845 6599,6576 6639,6594C6680,6612 6738,5913 6745,5854C6796,5414 6825,5764 6841,5954C6872,6305 6886,6731 6927,7067C6969,7416 6997,6897 7001,6846C7043,6238 7051,5625 7100,5018C7102,4991 7111,4809 7133,4797C7183,4814 7243,6670 7250,6826C7254,6903 7290,7890 7331,7717C7372,7547 7438,5772 7457,5444C7457,5444 7489,4763 7531,4931C7570,5084 7641,6290 7666,6565C7806,8106 7912,5950 7927,5716C7931,5647 7972,4856 8014,4847C8070,4883 8131,6679 8138,6844C8141,6908 8170,7745 8210,7756C8257,7725 8317,5995 8325,5832C8327,5771 8363,4835 8408,4998C8462,5195 8506,6813 8585,6682C8632,6604 8657,6175 8729,6385C8781,6535 8804,6658 8846,6313C8861,6194 8921,5431 8956,5385C9005,5319 9063,6399 9071,6511C9071,6511 9109,7172 9152,7012C9198,6838 9250,5626 9311,5710C9368,5788 9401,6634 9480,6262C9487,6229 9538,5873 9572,5900C9652,5967 9687,7443 9781,6453C9787,6390 9848,5529 9891,5546C9930,5560 9991,6312 10001,6396C10005,6430 10036,6769 10082,6586C10103,6502 10159,6030 10201,6033C10267,6038 10295,6657 10383,6161C10388,6135 10437,5775 10475,5818C10553,5905 10594,7223 10684,6549C10700,6433 10765,5695 10808,5650C10853,5602 10907,6149 10911,6183C10914,6203 10968,6763 11028,6659C11113,6511 11181,5378 11269,5783C11309,5966 11373,6758 11417,6819C11468,6889 11523,6098 11527,6048C11529,6025 11572,5457 11612,5534C11674,5650 11725,7051 11795,6768C11832,6615 11889,5728 11938,5718C11976,5711 12036,6302 12046,6371C12102,6747 12138,6452 12165,6276C12168,6259 12215,5868 12262,5950C12327,6063 12353,6627 12442,6256C12446,6239 12497,5952 12536,6013C12613,6132 12647,7036 12738,6235C12743,6194 12800,5559 12840,5586C12886,5617 12950,6585 12961,6702C13017,7290 13050,6922 13076,6611C13105,6249 13122,5817 13165,5466C13214,5074 13250,5570 13258,5658C13291,6031 13309,6494 13356,6851C13405,7219 13445,6748 13453,6667C13464,6565 13531,5644 13581,5622C13624,5603 13684,6164 13691,6218C13694,6235 13732,6579 13783,6451C13819,6363 13868,5982 13918,6077C13998,6229 14028,7045 14125,6175C14130,6134 14187,5489 14228,5523C14275,5561 14341,6512 14352,6631C14353,6642 14390,7122 14435,6923C14480,6727 14542,5663 14606,5627C14647,5604 14712,6008 14718,6040C14744,6164 14838,6533 14903,6629C14969,6728 15010,6336 15013,6314C15023,6238 15091,5566 15134,5554C15183,5540 15244,6226 15251,6284C15254,6307 15295,6747 15350,6680C15383,6640 15432,6373 15496,6237C15610,5994 15618,5705 15667,5605C15718,5502 15752,5967 15752,5974C15784,6316 15802,6749 15844,7073C15890,7417 15920,6943 15925,6880C15966,6380 15976,5877 16024,5378C16071,4892 16106,5431 16116,5561C16145,5928 16162,6382 16204,6736C16248,7107 16284,6714 16296,6603C16301,6556 16357,5888 16404,5922C16469,5970 16502,6815 16588,6219C16595,6175 16653,5633 16692,5659C16737,5689 16803,6536 16815,6649C16876,7195 16914,6787 16939,6536C16947,6457 17015,5536 17069,5539C17115,5542 17185,6211 17195,6282C17198,6300 17246,6752 17314,6629C17410,6456 17524,5394 17660,6045C17682,6148 17758,6652 17800,6690C17857,6742 17914,6145 17919,6102C17921,6086 17972,5558 18020,5655C18088,5793 18137,6909 18215,6623C18249,6500 18307,5890 18357,5885C18422,5879 18459,6577 18541,6346C18572,6261 18618,5954 18669,6054C18736,6183 18762,6616 18845,6205C18849,6185 18897,5880 18932,5915C19015,5995 19052,7368 19144,6362C19151,6284 19213,5352 19254,5386C19298,5423 19361,6611 19371,6744C19371,6744 19405,7324 19445,7104C19489,6863 19528,5946 19557,5615C19608,5044 19644,5533 19663,5752C19668,5813 19728,6754 19780,6721C19838,6685 19874,5846 19957,6062C20027,6245 20037,6526 20126,6109C20130,6087 20173,5830 20213,5897C20286,6017 20322,6869 20413,6423C20425,6367 20482,5967 20524,5977C20594,5993 20631,6764 20719,6210C20726,6167 20784,5669 20822,5700C20870,5738 20934,6642 20946,6757C21001,7294 21033,6944 21056,6667C21091,6249 21107,5771 21153,5365C21201,4943 21236,5444 21245,5546C21282,5985 21296,6437 21346,6872C21398,7330 21442,6866 21458,6714C21476,6553 21543,5698 21634,5612C21744,5507 21808,6394 21811,6433C21817,6499 21877,7282 21921,7213C21976,7127 22044,5586 22056,5386C22056,5386 22093,4667 22133,4864C22179,5091 22240,6751 22263,7125C22263,7125 22295,7779 22335,7537C22379,7268 22422,6167 22441,5827C22443,5777 22483,4960 22528,5085C22569,5200 22640,6357 22663,6588C22664,6597 22700,7062 22753,6896C22810,6717 22892,5662 22982,5712C23041,5746 23119,6369 23139,6480C23207,6847 23246,6568 23272,6394C23281,6334 23346,5752 23391,5761C23437,5770 23502,6398 23517,6491C23573,6840 23609,6504 23625,6370C23632,6311 23694,5625 23735,5634C23781,5645 23845,6539 23854,6628C23914,7224 23948,6799 23971,6515C23980,6409 24042,5366 24086,5348C24132,5328 24195,6457 24200,6536C24200,6539 24238,7158 24279,7039C24329,6893 24391,5397 24450,5428C24492,5450 24557,6392 24567,6495C24567,6500 24603,6974 24648,6797C24690,6629 24750,5680 24805,5680C24846,5681 24912,6318 24922,6387C24926,6418 24962,6724 25009,6553C25040,6441 25100,5919 25149,5911C25211,5900 25234.2,6472 25313.2,6332C25380.2,6213 25436.5,5900.55 25499,6234.12" style="fill:none;stroke:rgb(4,53,101);stroke-width:18.64px;"/>
        </g>
    </g>
</svg>
